<?xml version="1.0" standalone="no"?>
<!DOCTYPE svg PUBLIC "-//W3C//DTD SVG 20010904//EN"
 "http://www.w3.org/TR/2001/REC-SVG-20010904/DTD/svg10.dtd">
<svg version="1.0" xmlns="http://www.w3.org/2000/svg"
 width="1563.000000pt" height="1563.000000pt" viewBox="0 0 1563.000000 1563.000000"
 preserveAspectRatio="xMidYMid meet">

<g transform="translate(0.000000,1563.000000) scale(0.100000,-0.100000)"
fill="#000000" stroke="none">
<path d="M3992 9323 l3 -238 182 -3 182 -2 -6 -360 -6 -360 241 0 242 0 0 360
0 360 79 0 80 0 -2 -357 -2 -358 240 0 240 0 3 178 2 177 115 0 115 0 2 -177
3 -178 239 -3 c160 -1 242 1 246 8 5 8 15 8 34 0 17 -6 195 -10 493 -10 l466
0 -6 392 c-4 215 -7 485 -7 600 l0 208 -458 0 c-252 0 -472 -4 -490 -9 -20 -6
-32 -6 -32 0 0 5 -98 9 -238 9 l-239 0 -6 -122 c-4 -66 -7 -147 -7 -180 l0
-58 -120 0 -120 0 0 180 0 180 -735 0 -735 0 2 -237z m1048 -3 l0 -90 -180 0
-180 0 0 -360 0 -360 -85 0 -85 0 0 360 0 360 -180 0 -180 0 0 90 0 90 445 0
445 0 0 -90z m270 -90 l0 -180 275 0 275 0 0 180 0 180 85 0 85 0 0 -450 0
-450 -85 0 -85 0 0 180 0 180 -275 0 -275 0 0 -180 0 -180 -85 0 -85 0 0 450
0 450 85 0 85 0 0 -180z m1710 90 l0 -90 -360 0 -360 0 0 -90 0 -90 360 0 360
0 0 -90 0 -90 -360 0 -360 0 0 -90 0 -90 360 0 360 0 0 -90 0 -91 -382 3
c-427 3 -420 2 -475 75 l-28 36 -3 311 c-2 171 0 325 3 343 8 43 50 92 100
114 36 17 73 19 413 19 l372 0 0 -90z"/>
<path d="M7723 9550 c-92 -19 -182 -90 -225 -178 -22 -44 -23 -63 -29 -302 -4
-140 -7 -357 -8 -482 l-1 -228 735 0 735 0 0 180 0 180 125 0 125 0 0 -180 0
-180 370 0 370 0 0 132 0 133 113 -112 c61 -61 128 -119 147 -129 32 -17 67
-19 383 -22 l347 -3 0 133 0 133 113 -112 c61 -61 128 -119 147 -129 30 -16
66 -19 248 -22 l212 -4 0 241 0 241 -133 0 -133 0 -59 60 -59 60 59 60 59 60
133 0 133 0 0 241 0 240 -212 -3 c-256 -4 -247 0 -393 -147 -55 -56 -103 -101
-107 -101 -5 0 -8 56 -8 125 l0 125 -234 0 c-150 0 -236 -4 -238 -10 -2 -7
-20 -7 -57 0 -72 14 -928 14 -933 0 -2 -7 -23 -7 -62 1 -37 6 -174 9 -370 7
-300 -3 -313 -4 -361 -26 -27 -13 -60 -32 -72 -44 l-22 -20 -33 26 c-79 60
-84 61 -438 63 -179 1 -344 -2 -367 -7z m674 -155 c50 -21 72 -42 94 -90 17
-37 19 -73 19 -417 l0 -378 -85 0 -85 0 0 360 0 360 -95 0 -95 0 0 -360 0
-360 -85 0 -85 0 0 360 0 360 -95 0 -95 0 0 -360 0 -360 -85 0 -85 0 0 385 c0
413 0 414 52 462 53 50 73 52 391 53 246 0 304 -3 334 -15z m990 0 c50 -21 72
-42 94 -90 17 -37 19 -73 19 -417 l0 -378 -85 0 -85 0 0 180 0 180 -275 0
-275 0 0 -180 0 -180 -85 0 -85 0 0 385 c0 413 0 414 52 462 53 50 73 52 391
53 246 0 304 -3 334 -15z m998 -4 c46 -21 79 -54 94 -94 16 -42 14 -280 -3
-320 -17 -42 -66 -83 -114 -97 -20 -5 -80 -10 -132 -10 l-95 0 90 -90 90 -90
87 0 88 0 0 -91 0 -91 -125 4 -125 3 -178 178 -177 177 -58 0 -57 0 0 -180 0
-180 -85 0 -85 0 0 450 0 450 373 0 c340 0 375 -2 412 -19z m375 -161 l0 -180
57 0 58 0 177 178 178 177 125 3 125 4 0 -91 0 -91 -88 0 -87 0 -135 -135
-135 -135 135 -135 135 -135 87 0 88 0 0 -91 0 -91 -125 4 -125 3 -178 178
-177 177 -58 0 -57 0 0 -180 0 -180 -85 0 -85 0 0 450 0 450 85 0 85 0 0 -180z"/>
<path d="M8780 9140 l0 -90 275 0 275 0 0 90 0 90 -275 0 -275 0 0 -90z"/>
<path d="M9770 9140 l0 -90 275 0 275 0 0 90 0 90 -275 0 -275 0 0 -90z"/>
<path d="M2760 7400 l0 -600 459 0 c289 0 470 4 487 10 18 7 30 7 39 0 8 -7
95 -9 246 -8 l234 3 3 178 2 177 115 0 115 0 2 -177 3 -178 378 -3 377 -2 0
127 0 126 118 -114 c95 -94 125 -118 162 -128 34 -9 182 -11 610 -9 l565 3 50
23 c27 13 60 32 72 44 l22 20 30 -21 c17 -12 52 -32 78 -44 48 -22 53 -22 656
-25 l607 -3 0 127 0 127 108 -104 c59 -58 125 -114 147 -124 38 -19 67 -20
575 -23 350 -2 559 1 605 8 48 8 71 8 73 0 2 -6 84 -10 238 -10 l234 0 0 180
0 180 125 0 125 0 0 -180 0 -180 234 0 c146 0 236 4 238 10 2 6 23 6 63 0 82
-13 587 -13 660 1 43 8 60 8 63 0 3 -8 78 -11 238 -11 l234 0 0 180 0 180 193
0 c213 0 304 11 357 42 56 33 110 89 138 143 26 49 27 54 27 235 0 176 -1 187
-24 232 -33 65 -96 126 -161 157 l-55 26 -469 3 c-324 2 -471 0 -476 -8 -4 -7
-22 -7 -60 0 -69 13 -601 13 -671 0 -37 -7 -55 -7 -57 0 -2 6 -88 10 -238 10
l-234 0 0 -180 0 -180 -125 0 -125 0 0 180 0 181 -607 -3 c-604 -3 -608 -3
-656 -25 -26 -12 -59 -31 -73 -42 l-25 -20 -52 33 c-29 18 -76 38 -105 45 -37
8 -296 11 -857 11 -791 0 -805 0 -860 -21 -31 -11 -68 -31 -83 -44 l-26 -23
-33 25 c-17 13 -55 33 -83 44 -47 18 -80 19 -514 19 -319 0 -465 -3 -468 -11
-2 -7 -12 -7 -31 0 -38 15 -954 15 -959 1 -2 -7 -15 -7 -38 0 -49 14 -664 13
-715 -1 -22 -6 -59 -24 -83 -40 -24 -16 -48 -29 -53 -29 -6 0 -26 12 -44 26
-69 52 -91 54 -587 54 l-458 0 0 -600z m935 431 c46 -21 79 -54 94 -94 6 -16
11 -86 11 -156 0 -120 -1 -129 -22 -148 -13 -11 -30 -23 -38 -25 -11 -3 -8 -8
10 -18 14 -7 30 -20 37 -29 18 -23 17 -262 -1 -304 -17 -42 -66 -83 -114 -97
-22 -6 -181 -10 -399 -10 l-363 0 0 450 0 450 373 0 c340 0 375 -2 412 -19z
m990 0 c46 -21 79 -54 94 -94 7 -18 11 -163 11 -408 l0 -379 -85 0 -85 0 0
180 0 180 -275 0 -275 0 0 -180 0 -180 -85 0 -85 0 0 379 c0 245 4 390 11 408
15 40 48 73 94 94 36 17 69 19 340 19 271 0 304 -2 340 -19z m1018 -11 c20
-13 46 -43 59 -65 21 -36 23 -52 23 -175 0 -149 -8 -175 -65 -223 -42 -36 -89
-47 -200 -47 l-95 0 90 -90 90 -90 92 0 93 0 0 -90 0 -90 -115 0 c-81 0 -124
4 -143 14 -15 8 -101 89 -192 180 l-165 166 -52 0 -53 0 0 -180 0 -180 -90 0
-90 0 0 450 0 451 388 -3 389 -3 36 -25z m990 0 c61 -42 80 -88 85 -211 5
-122 -7 -174 -44 -191 -13 -6 -24 -14 -24 -18 0 -4 11 -12 24 -18 37 -17 49
-69 44 -191 -5 -117 -17 -152 -68 -194 -17 -15 -47 -31 -68 -37 -22 -6 -181
-10 -399 -10 l-363 0 0 450 0 451 388 -3 389 -3 36 -25z m1077 -60 l0 -90
-360 0 -360 0 0 -90 0 -90 360 0 360 0 0 -90 0 -90 -360 0 -360 0 0 -90 0 -90
360 0 360 0 0 -90 0 -91 -388 3 -388 3 -41 27 c-24 16 -49 44 -62 70 -20 42
-21 59 -21 346 0 250 3 309 15 339 21 50 42 72 90 94 37 17 73 19 418 19 l377
0 0 -90z m888 69 c26 -13 54 -38 70 -62 25 -37 27 -50 30 -162 4 -146 -6 -193
-54 -239 -44 -42 -96 -56 -216 -56 l-93 0 90 -90 90 -90 92 0 93 0 0 -90 0
-90 -118 0 c-116 0 -120 1 -158 29 -21 16 -106 97 -189 180 l-150 151 -52 0
-53 0 0 -180 0 -180 -90 0 -90 0 0 450 0 450 377 0 c363 0 378 -1 421 -21z
m1092 -69 l0 -90 -360 0 -360 0 0 -89 0 -90 298 -3 c290 -3 298 -4 334 -26 20
-13 47 -40 60 -60 21 -34 23 -48 23 -182 0 -134 -2 -148 -23 -182 -13 -20 -40
-47 -60 -60 -37 -23 -40 -23 -424 -26 l-388 -3 0 90 0 91 360 0 360 0 0 89 0
90 -292 3 c-287 3 -294 3 -334 27 -24 13 -52 41 -65 65 -22 38 -24 52 -24 181
0 128 2 143 23 176 24 39 59 67 101 79 14 5 194 9 399 9 l372 1 0 -90z m270
-90 l0 -180 275 0 275 0 0 180 0 180 85 0 85 0 0 -450 0 -450 -85 0 -85 0 0
180 0 180 -275 0 -275 0 0 -180 0 -180 -85 0 -85 0 0 450 0 450 85 0 85 0 0
-180z m1597 165 c50 -21 72 -42 94 -90 17 -36 19 -70 19 -345 0 -464 14 -449
-440 -450 -167 0 -300 4 -322 10 -44 13 -93 52 -113 91 -21 41 -22 657 -1 697
19 37 54 68 96 86 52 23 614 23 667 1z m998 -4 c46 -21 79 -54 94 -94 16 -42
14 -280 -3 -320 -17 -42 -66 -83 -114 -97 -21 -6 -154 -10 -314 -10 l-278 0 0
-180 0 -180 -85 0 -85 0 0 450 0 450 373 0 c340 0 375 -2 412 -19z"/>
<path d="M3080 7580 l0 -90 275 0 275 0 0 90 0 90 -275 0 -275 0 0 -90z"/>
<path d="M3080 7220 l0 -90 275 0 275 0 0 90 0 90 -275 0 -275 0 0 -90z"/>
<path d="M4070 7580 l0 -90 275 0 275 0 0 90 0 90 -275 0 -275 0 0 -90z"/>
<path d="M5070 7580 l0 -90 270 0 270 0 0 90 0 90 -270 0 -270 0 0 -90z"/>
<path d="M6060 7580 l0 -90 270 0 270 0 0 90 0 90 -270 0 -270 0 0 -90z"/>
<path d="M6060 7220 l0 -90 270 0 270 0 0 90 0 90 -270 0 -270 0 0 -90z"/>
<path d="M8040 7580 l0 -90 270 0 270 0 0 90 0 90 -270 0 -270 0 0 -90z"/>
<path d="M11010 7400 l0 -270 275 0 275 0 0 270 0 270 -275 0 -275 0 0 -270z
m400 0 l0 -120 -125 0 -125 0 0 120 0 120 125 0 125 0 0 -120z"/>
<path d="M12000 7580 l0 -90 275 0 275 0 0 90 0 90 -275 0 -275 0 0 -90z"/>
<path d="M6775 6575 c-23 -22 -25 -32 -25 -108 0 -131 0 -131 202 -137 l163
-5 0 -45 0 -45 -182 -3 -183 -2 0 -46 0 -45 205 3 c197 3 205 4 227 25 18 18
23 37 26 93 8 142 -16 160 -223 160 l-145 0 0 45 0 45 185 0 185 0 0 45 0 45
-205 0 c-205 0 -206 0 -230 -25z"/>
<path d="M7260 6555 l0 -45 90 0 90 0 0 -140 0 -140 -90 0 -90 0 0 -45 0 -45
230 0 230 0 0 45 0 44 -92 3 -93 3 -3 138 -3 137 96 0 95 0 0 45 0 45 -230 0
-230 0 0 -45z"/>
<path d="M7782 6588 c-9 -9 -12 -74 -12 -230 l0 -218 45 0 45 0 0 152 0 153
153 -153 c84 -83 160 -152 169 -152 9 0 24 7 32 16 14 13 16 48 16 230 l0 214
-45 0 -45 0 0 -152 0 -153 -153 153 c-150 150 -177 168 -205 140z"/>
<path d="M8305 6575 c-25 -24 -25 -26 -25 -204 l0 -179 31 -26 31 -26 199 0
199 0 0 45 0 45 -185 0 -185 0 0 140 0 140 185 0 185 0 0 45 0 45 -205 0
c-205 0 -206 0 -230 -25z"/>
<path d="M8815 6575 c-25 -24 -25 -26 -25 -204 l0 -179 31 -26 31 -26 199 0
199 0 0 45 0 45 -185 0 -185 0 0 50 0 50 185 0 185 0 0 45 0 45 -185 0 -185 0
0 45 0 45 185 0 185 0 0 45 0 45 -205 0 c-205 0 -206 0 -230 -25z"/>
<path d="M9550 6555 l0 -45 185 0 185 0 0 -45 0 -45 -145 0 c-90 0 -154 -4
-170 -12 -43 -19 -55 -56 -55 -168 l0 -100 230 0 230 0 0 45 0 45 -182 2 -183
3 0 45 0 45 163 5 c202 6 202 6 202 137 0 76 -2 86 -25 108 -24 25 -25 25
-230 25 l-205 0 0 -45z"/>
<path d="M10089 6570 l-30 -30 3 -175 c4 -233 -10 -219 222 -223 l173 -3 31
26 32 27 0 179 c0 243 14 229 -225 229 l-177 0 -29 -30z m341 -200 l0 -141
-137 3 -138 3 -3 138 -3 137 141 0 140 0 0 -140z"/>
<path d="M10250 6375 l0 -45 45 0 45 0 0 45 0 45 -45 0 -45 0 0 -45z"/>
<path d="M10570 6555 l0 -45 185 0 185 0 0 -45 0 -45 -145 0 c-90 0 -154 -4
-170 -12 -43 -19 -55 -56 -55 -168 l0 -100 230 0 230 0 0 45 0 45 -182 2 -183
3 0 45 0 45 163 5 c202 6 202 6 202 137 0 76 -2 86 -25 108 -24 25 -25 25
-230 25 l-205 0 0 -45z"/>
<path d="M11080 6555 l0 -45 95 0 96 0 -3 -137 -3 -138 -92 -3 -93 -3 0 -44 0
-45 230 0 230 0 0 45 0 45 -90 0 -90 0 0 156 0 156 -29 29 c-29 29 -31 29
-140 29 l-111 0 0 -45z"/>
</g>
</svg>
